<?xml version="1.0" encoding="utf-8"?>
<!-- Generator: Adobe Illustrator 17.0.0, SVG Export Plug-In . SVG Version: 6.00 Build 0)  -->
<!DOCTYPE svg PUBLIC "-//W3C//DTD SVG 1.1//EN" "http://www.w3.org/Graphics/SVG/1.1/DTD/svg11.dtd">
<svg version="1.1" id="Layer_1" xmlns="http://www.w3.org/2000/svg" xmlns:xlink="http://www.w3.org/1999/xlink" x="0px" y="0px"
	 width="1200px" height="630px" viewBox="0 0 1200 630" enable-background="new 0 0 1200 630" xml:space="preserve">
<g>
	<path fill="#EF6945" d="M701.143,248.996c-52.033,23.708-74.607,86.078-50.284,139.457c24.333,53.394,86.219,77.309,138.252,53.6
		c51.892-23.643,74.426-86.043,50.093-139.427C814.911,249.258,753.03,225.354,701.143,248.996 M777.075,415.765
		c-37.81,17.232-82.802-0.197-100.488-39.015c-17.665-38.768-1.3-84.158,36.51-101.39c37.74-17.196,82.807,0.202,100.477,38.969
		C831.24,353.153,814.805,398.573,777.075,415.765"/>
	<path fill="#EF6945" d="M408.283,249.047c-51.857,23.633-74.416,86.028-50.103,139.376c24.313,53.363,86.219,77.309,138.076,53.676
		c52.073-23.733,74.567-86.134,50.254-139.502C522.198,249.258,460.352,225.323,408.283,249.047 M484.292,415.78
		c-37.755,17.207-82.767-0.252-100.432-39.08c-17.645-38.727-1.32-84.153,36.434-101.354c37.835-17.242,82.878,0.202,100.528,38.949
		C538.512,353.092,522.137,398.533,484.292,415.78"/>
	<path fill="#EF6945" d="M715.708,124.846c22.191,2.127,41.958-14.5,44.145-37.286c2.182-22.735-14.077-42.946-36.258-45.073
		c-22.156-2.127-41.993,14.656-44.166,37.382C677.253,102.635,693.552,122.739,715.708,124.846"/>
	<path fill="#EF6945" d="M758.82,194.695l-77.55-1.643c0,0-1.905-81.507-1.925-81.905c-0.761-15.221-22.075-22.383-28.804-23.456
		c-4.722-0.746-116.263-17.393-180.634,71.497c-8.19,11.31-9.329,25.775-1.845,36.666c2.989,5.826,13.018,12.56,17.191,14.298
		s102.74,42.724,102.74,42.724l-11.214,100.356c-1.85,11.431,4.854,22.448,16.284,24.298s18.215-6.164,20.064-17.595l18.9-116.696
		c1.341-8.361-2.53-17.091-10.342-21.496l-1.628-0.927l-78.639-44.362c41.454-33.279,101.208-25.336,106.344-24.983l5.272,56.398
		l0.05,0.514c0.655,7.132,6.582,12.786,13.915,12.943l91.204,1.935c7.888,0.166,14.419-6.093,14.591-13.976
		C772.963,201.393,766.703,194.862,758.82,194.695z"/>
</g>
</svg>
