<?xml version="1.0" encoding="utf-8"?>
<!-- Generator: Adobe Illustrator 17.0.0, SVG Export Plug-In . SVG Version: 6.00 Build 0)  -->
<!DOCTYPE svg PUBLIC "-//W3C//DTD SVG 1.1//EN" "http://www.w3.org/Graphics/SVG/1.1/DTD/svg11.dtd">
<svg version="1.1" id="Layer_1" xmlns="http://www.w3.org/2000/svg" xmlns:xlink="http://www.w3.org/1999/xlink" x="0px" y="0px"
	 width="500px" height="500px" viewBox="0 0 500 500" enable-background="new 0 0 500 500" xml:space="preserve">
<g id="Layer_1_1_">
</g>
<g id="Layer_2">
	<path opacity="0.3" fill="#741B56" d="M258.202,178.989c0-4.05,1.067-8.029,3.092-11.537l19.982,11.537H258.202z"/>
	<path fill="none" stroke="#FFFFFF" stroke-width="0.6737" d="M258.202,178.989c0-4.05,1.067-8.029,3.092-11.537l19.982,11.537
		H258.202z"/>
	
		<text transform="matrix(0.3496 -0.9369 0.9369 0.3496 220.9858 166.6559)" fill="#333333" font-family="'NexaLight'" font-size="10.1419">A</text>
	
		<text transform="matrix(0.3496 -0.9369 0.9369 0.3496 223.3511 160.317)" fill="#333333" font-family="'NexaLight'" font-size="10.1419">p</text>
	
		<text transform="matrix(0.3496 -0.9369 0.9369 0.3496 225.3227 155.0328)" fill="#333333" font-family="'NexaLight'" font-size="10.1419">r</text>
	<path opacity="0.2" fill="#741B56" d="M262.514,168.157c1.9-3.294,4.637-6.029,7.931-7.93l10.831,18.762L262.514,168.157z"/>
	<path fill="none" stroke="#FFFFFF" stroke-width="0.6737" d="M262.514,168.157c1.9-3.294,4.637-6.028,7.931-7.93l10.831,18.762
		L262.514,168.157z"/>
	
		<text transform="matrix(0.7071 -0.7071 0.7071 0.7071 234.2641 141.8593)" fill="#333333" font-family="'NexaLight'" font-size="10.1421">M</text>
	
		<text transform="matrix(0.7071 -0.7071 0.7071 0.7071 240.2377 135.8851)" fill="#333333" font-family="'NexaLight'" font-size="10.1421">a</text>
	
		<text transform="matrix(0.7071 -0.7071 0.7071 0.7071 244.227 131.8964)" fill="#333333" font-family="'NexaLight'" font-size="10.1421">y</text>
	<path opacity="0.1" fill="#741B56" d="M271.865,162.687c2.862-1.652,6.107-2.522,9.411-2.522v18.824L271.865,162.687z"/>
	<path fill="none" stroke="#FFFFFF" stroke-width="0.6737" d="M271.865,162.687c2.862-1.652,6.107-2.521,9.411-2.521v18.823
		L271.865,162.687z"/>
	
		<text transform="matrix(0.9804 -0.1969 0.1969 0.9804 258.9039 125.486)" fill="#1A1A1A" font-family="'NexaLight'" font-size="10.1419">J</text>
	
		<text transform="matrix(0.9804 -0.1969 0.1969 0.9804 263.8756 124.487)" fill="#1A1A1A" font-family="'NexaLight'" font-size="10.1419">u</text>
	
		<text transform="matrix(0.9804 -0.1969 0.1969 0.9804 269.4058 123.3768)" fill="#1A1A1A" font-family="'NexaLight'" font-size="10.1419">n</text>
	<path opacity="0.4" fill="#741B56" d="M281.276,72.276c18.732,0,37.134,4.931,53.356,14.297l-53.356,92.416V72.276z"/>
	<path fill="none" stroke="#FFFFFF" stroke-width="0.6737" d="M281.276,72.276c18.732,0,37.134,4.931,53.356,14.297l-53.356,92.416
		V72.276z"/>
	
		<text transform="matrix(0.9659 0.2588 -0.2588 0.9659 303.4194 71.2973)" fill="#333333" font-family="'NexaLight'" font-size="10.1419">J</text>
	
		<text transform="matrix(0.9659 0.2588 -0.2588 0.9659 308.3188 72.6103)" fill="#333333" font-family="'NexaLight'" font-size="10.1419">u</text>
	
		<text transform="matrix(0.9659 0.2588 -0.2588 0.9659 313.7671 74.0698)" fill="#333333" font-family="'NexaLight'" font-size="10.1419">l</text>
	<path opacity="0.65" fill="#741B56" d="M360.308,42.101c24.03,13.873,43.983,33.827,57.856,57.855l-136.889,79.033L360.308,42.101z
		"/>
	<path fill="none" stroke="#FFFFFF" stroke-width="0.6737" d="M360.308,42.101c24.03,13.873,43.983,33.827,57.856,57.855
		l-136.889,79.033L360.308,42.101z"/>
	
		<text transform="matrix(0.7071 0.7071 -0.7071 0.7071 390.817 56.6914)" fill="#333333" font-family="'NexaLight'" font-size="10.1421">A</text>
	
		<text transform="matrix(0.7071 0.7071 -0.7071 0.7071 395.5992 61.4736)" fill="#333333" font-family="'NexaLight'" font-size="10.1421">u</text>
	
		<text transform="matrix(0.7071 0.7071 -0.7071 0.7071 399.5875 65.4619)" fill="#333333" font-family="'NexaLight'" font-size="10.1421">g</text>
	<path opacity="0.6" fill="#741B56" d="M414.72,101.946c13.524,23.424,20.645,49.996,20.645,77.043H281.276L414.72,101.946z"/>
	<path fill="none" stroke="#FFFFFF" stroke-width="0.6737" d="M414.72,101.946c13.524,23.424,20.645,49.996,20.645,77.043H281.276
		L414.72,101.946z"/>
	
		<text transform="matrix(0.2959 0.9552 -0.9552 0.2959 430.4016 125.7737)" fill="#333333" font-family="'NexaLight'" font-size="10.1419">S</text>
	
		<text transform="matrix(0.2959 0.9552 -0.9552 0.2959 432.4026 132.2336)" fill="#333333" font-family="'NexaLight'" font-size="10.1419">e</text>
	
		<text transform="matrix(0.2959 0.9552 -0.9552 0.2959 434.0725 137.6223)" fill="#333333" font-family="'NexaLight'" font-size="10.1419">p</text>
	<path opacity="0.5" fill="#741B56" d="M403.673,178.989c0,21.486-5.655,42.592-16.397,61.199l-106-61.199H403.673z"/>
	<path fill="none" stroke="#FFFFFF" stroke-width="0.6737" d="M403.673,178.989c0,21.486-5.655,42.592-16.397,61.199l-106-61.199
		H403.673z"/>
	
		<text transform="matrix(-0.2588 0.9659 -0.9659 -0.2588 405.4841 201.8355)" fill="#333333" font-family="'NexaLight'" font-size="10.1419">O</text>
	
		<text transform="matrix(-0.2588 0.9659 -0.9659 -0.2588 403.4431 209.4566)" fill="#333333" font-family="'NexaLight'" font-size="10.1419">c</text>
	
		<text transform="matrix(-0.2588 0.9659 -0.9659 -0.2588 402.1306 214.355)" fill="#333333" font-family="'NexaLight'" font-size="10.1419">t</text>
	<path opacity="0.7" fill="#741B56" d="M420.662,259.464c-14.127,24.466-34.445,44.784-58.911,58.909l-80.475-139.384
		L420.662,259.464z"/>
	<path fill="none" stroke="#FFFFFF" stroke-width="0.6737" d="M420.662,259.464c-14.127,24.466-34.445,44.784-58.911,58.909
		l-80.475-139.384L420.662,259.464z"/>
	
		<text transform="matrix(-0.7071 0.7071 -0.7071 -0.7071 405.6124 289.5699)" fill="#333333" font-family="'NexaLight'" font-size="10.1421">N</text>
	
		<text transform="matrix(-0.7071 0.7071 -0.7071 -0.7071 400.4327 294.7496)" fill="#333333" font-family="'NexaLight'" font-size="10.1421">o</text>
	
		<text transform="matrix(-0.7071 0.7071 -0.7071 -0.7071 396.4444 298.7379)" fill="#333333" font-family="'NexaLight'" font-size="10.1421">v</text>
	<path opacity="0.8" fill="#741B56" d="M390.854,368.784c-33.315,19.234-71.108,29.36-109.578,29.36V178.989L390.854,368.784z"/>
	<path fill="none" stroke="#FFFFFF" stroke-width="0.6737" d="M390.854,368.784c-33.316,19.234-71.108,29.36-109.578,29.36V178.989
		L390.854,368.784z"/>
	<path fill="#741B56" d="M281.276,457.899c-48.959,0-97.056-12.888-139.454-37.368l139.454-241.542V457.899z"/>
	<path fill="none" stroke="#FFFFFF" stroke-width="0.6737" d="M281.276,457.899c-48.958,0-97.056-12.888-139.454-37.368
		l139.454-241.542V457.899z"/>
	<path opacity="0.9" fill="#741B56" d="M156.198,395.63c-38.029-21.955-69.607-53.535-91.563-91.563l216.641-125.078L156.198,395.63
		z"/>
	<path fill="none" stroke="#FFFFFF" stroke-width="0.6737" d="M156.198,395.63c-38.029-21.955-69.607-53.535-91.563-91.563
		l216.641-125.078L156.198,395.63z"/>
	<path opacity="0.75" fill="#741B56" d="M115.758,274.551c-16.774-29.054-25.606-62.013-25.606-95.562h191.124L115.758,274.551z"/>
	<path fill="none" stroke="#FFFFFF" stroke-width="0.6737" d="M115.758,274.551c-16.774-29.054-25.606-62.013-25.606-95.562h191.124
		L115.758,274.551z"/>
	
		<text transform="matrix(-0.2588 -0.9659 0.9659 -0.2588 93.9869 235.6799)" fill="#333333" font-family="'NexaLight'" font-size="10.1419">M</text>
	
		<text transform="matrix(-0.2588 -0.9659 0.9659 -0.2588 91.8005 227.5178)" fill="#333333" font-family="'NexaLight'" font-size="10.1419">a</text>
	
		<text transform="matrix(-0.2588 -0.9659 0.9659 -0.2588 90.3409 222.0705)" fill="#333333" font-family="'NexaLight'" font-size="10.1419">r</text>
</g>
</svg>
